<svg width="466" height="165" viewBox="0 0 466 165" fill="none" xmlns="http://www.w3.org/2000/svg">
<g opacity="0.5">
<path d="M-225.25 3.5H-251.5V161H-221.094V58.1875L-148.906 161H-122.656V3.5H-152.844V106.313L-225.25 3.5Z" fill="#372B43" fill-opacity="0.62"/>
<path d="M-20.0488 164.281C1.82617 164.281 23.4824 155.969 37.9199 138.469C50.8262 122.719 55.8574 104.125 56.2949 82.25C55.8574 61.25 51.2637 42 37.9199 25.8125C23.9199 8.75001 2.70117 0.21875 -20.0488 0.21875C-42.7988 0.21875 -64.2363 8.53125 -78.0176 25.8125C-90.7051 41.125 -96.3926 61.25 -96.3926 82.25C-96.3926 103.25 -90.7051 123.156 -78.0176 138.469C-64.4551 155.531 -42.5801 164.281 -20.0488 164.281ZM-20.0488 136.281C-33.6113 136.5 -46.7363 131.031 -54.3926 120.531C-62.4863 110.031 -64.8926 96.0313 -65.1113 82.25C-64.8926 68.4688 -62.4863 54.25 -54.3926 43.9688C-46.7363 33.4688 -33.6113 28 -20.0488 28.2188C-6.48633 28 6.41992 33.4688 14.2949 43.9688C22.1699 54.25 24.7949 68.4688 24.7949 82.25C24.7949 96.0313 22.1699 110.031 14.2949 120.531C6.41992 131.031 -6.48633 136.5 -20.0488 136.281Z" fill="#372B43" fill-opacity="0.62"/>
<path d="M192.016 3.5H62.9531V33.25H112.609V161H142.359V33.25H192.016V3.5Z" fill="#372B43" fill-opacity="0.62"/>
<path d="M301.09 161H331.715L283.59 3.5H239.184L191.059 161H221.684L229.121 136.5H293.434L301.09 161ZM237.652 108.5L261.059 31.5L284.902 108.5H237.652Z" fill="#372B43" fill-opacity="0.62"/>
<path d="M456.279 84.2188C453.873 81.1563 451.248 78.3125 448.404 75.6875C448.623 75.4688 449.061 75.0313 449.279 74.5938C455.186 67.1563 458.686 57.5313 458.467 48.3438C458.248 38.7188 455.186 29.0938 449.279 21.6563C444.029 14 435.936 8.3125 426.748 5.6875C422.373 4.15625 417.779 3.5 413.186 3.5H350.404V161H416.904C421.936 161 426.967 159.906 431.779 158.594C441.404 155.531 450.154 149.625 456.279 141.531C462.404 133 465.686 122.938 465.686 112.875C465.686 102.375 462.404 92.3125 456.279 84.2188ZM412.967 31.2813C416.467 31.2813 421.717 34.125 423.904 36.9688C426.748 40.0313 428.061 44.1875 428.279 48.3438C428.498 52.0625 426.967 55.7813 424.561 58.625C422.154 61.6875 417.779 64.0938 414.717 64.75H380.592V31.2813H412.967ZM435.717 112.875C435.498 118.563 433.529 124.031 429.154 127.75C425.654 130.813 421.279 133 416.467 133H380.592V92.75H416.467C421.498 92.75 425.654 93.8438 430.029 98.2188C433.748 102.156 435.936 107.625 435.717 112.875Z" fill="#372B43" fill-opacity="0.62"/>
</g>
</svg>
