<svg width="648" height="165" viewBox="0 0 648 165" fill="none" xmlns="http://www.w3.org/2000/svg">
<g opacity="0.5">
<path d="M-43.25 3.5H-69.5V161H-39.0938V58.1875L33.0938 161H59.3438V3.5H29.1563V106.313L-43.25 3.5Z" fill="#372B43" fill-opacity="0.62"/>
<path d="M161.951 164.281C183.826 164.281 205.482 155.969 219.92 138.469C232.826 122.719 237.857 104.125 238.295 82.25C237.857 61.25 233.264 42 219.92 25.8125C205.92 8.75001 184.701 0.21875 161.951 0.21875C139.201 0.21875 117.764 8.53125 103.982 25.8125C91.2949 41.125 85.6074 61.25 85.6074 82.25C85.6074 103.25 91.2949 123.156 103.982 138.469C117.545 155.531 139.42 164.281 161.951 164.281ZM161.951 136.281C148.389 136.5 135.264 131.031 127.607 120.531C119.514 110.031 117.107 96.0313 116.889 82.25C117.107 68.4688 119.514 54.25 127.607 43.9688C135.264 33.4688 148.389 28 161.951 28.2188C175.514 28 188.42 33.4688 196.295 43.9688C204.17 54.25 206.795 68.4688 206.795 82.25C206.795 96.0313 204.17 110.031 196.295 120.531C188.42 131.031 175.514 136.5 161.951 136.281Z" fill="#372B43" fill-opacity="0.62"/>
<path d="M374.016 3.5H244.953V33.25H294.609V161H324.359V33.25H374.016V3.5Z" fill="#372B43" fill-opacity="0.62"/>
<path d="M483.09 161H513.715L465.59 3.5H421.184L373.059 161H403.684L411.121 136.5H475.434L483.09 161ZM419.652 108.5L443.059 31.5L466.902 108.5H419.652Z" fill="#372B43" fill-opacity="0.62"/>
<path d="M638.279 84.2188C635.873 81.1563 633.248 78.3125 630.404 75.6875C630.623 75.4688 631.061 75.0313 631.279 74.5938C637.186 67.1563 640.686 57.5313 640.467 48.3438C640.248 38.7188 637.186 29.0938 631.279 21.6563C626.029 14 617.936 8.3125 608.748 5.6875C604.373 4.15625 599.779 3.5 595.186 3.5H532.404V161H598.904C603.936 161 608.967 159.906 613.779 158.594C623.404 155.531 632.154 149.625 638.279 141.531C644.404 133 647.686 122.938 647.686 112.875C647.686 102.375 644.404 92.3125 638.279 84.2188ZM594.967 31.2813C598.467 31.2813 603.717 34.125 605.904 36.9688C608.748 40.0313 610.061 44.1875 610.279 48.3438C610.498 52.0625 608.967 55.7813 606.561 58.625C604.154 61.6875 599.779 64.0938 596.717 64.75H562.592V31.2813H594.967ZM617.717 112.875C617.498 118.563 615.529 124.031 611.154 127.75C607.654 130.813 603.279 133 598.467 133H562.592V92.75H598.467C603.498 92.75 607.654 93.8438 612.029 98.2188C615.748 102.156 617.936 107.625 617.717 112.875Z" fill="#372B43" fill-opacity="0.62"/>
</g>
</svg>
